<?xml version="1.0" standalone="no"?>
<!DOCTYPE svg PUBLIC "-//W3C//DTD SVG 20010904//EN"
 "http://www.w3.org/TR/2001/REC-SVG-20010904/DTD/svg10.dtd">
<svg version="1.0" xmlns="http://www.w3.org/2000/svg"
 width="1280.000000pt" height="1280.000000pt" viewBox="0 0 1280.000000 1280.000000"
 preserveAspectRatio="xMidYMid meet">
<metadata>
Created by potrace 1.15, written by Peter Selinger 2001-2017
</metadata>
<g transform="translate(0.000000,1280.000000) scale(0.100000,-0.100000)"
fill="#4caf50" stroke="none">
<path d="M5890 12789 c-186 -14 -433 -48 -605 -84 -88 -19 -239 -50 -335 -69
-222 -45 -414 -100 -610 -176 -85 -32 -222 -84 -305 -114 -82 -29 -272 -110
-420 -179 -220 -102 -302 -145 -437 -233 -92 -60 -215 -137 -275 -172 -176
-102 -556 -392 -702 -535 -69 -68 -173 -161 -229 -207 -72 -58 -137 -124 -212
-214 -60 -72 -152 -174 -205 -226 -53 -52 -113 -117 -133 -145 -20 -27 -105
-142 -188 -255 -84 -113 -185 -261 -225 -330 -40 -69 -112 -184 -161 -257
-109 -164 -304 -579 -413 -878 -40 -110 -91 -247 -114 -305 -53 -134 -122
-382 -161 -580 -17 -85 -46 -227 -65 -315 -70 -335 -95 -626 -95 -1115 0 -489
25 -780 95 -1115 19 -88 48 -230 65 -315 39 -198 108 -446 161 -580 23 -58 74
-195 114 -305 109 -299 304 -714 413 -878 49 -73 121 -188 161 -257 40 -69
117 -179 170 -245 54 -66 138 -181 188 -255 65 -96 119 -163 188 -230 53 -52
145 -154 205 -226 75 -90 140 -156 212 -214 56 -46 162 -141 233 -211 94 -91
165 -149 255 -209 69 -46 179 -127 245 -181 66 -53 176 -130 245 -170 69 -40
184 -112 257 -161 103 -68 193 -116 405 -214 150 -69 341 -151 423 -180 83
-30 220 -82 305 -114 196 -76 388 -131 610 -176 96 -19 247 -50 335 -69 334
-70 625 -95 1115 -95 490 0 781 25 1115 95 88 19 239 50 335 69 222 45 414
100 610 176 85 32 223 84 305 114 83 29 273 111 423 180 212 98 302 146 405
214 73 49 188 121 257 161 69 40 179 117 245 170 66 54 176 135 245 181 90 60
161 118 255 209 72 70 177 165 233 211 72 58 137 124 212 214 60 72 152 174
205 226 69 67 123 134 188 230 50 74 134 189 188 255 53 66 130 176 170 245
40 69 112 184 161 257 109 164 304 579 413 878 40 110 91 247 114 305 53 134
122 382 161 580 17 85 46 227 65 315 70 335 95 626 95 1115 0 489 -25 780 -95
1115 -19 88 -48 230 -65 315 -39 198 -108 446 -161 580 -23 58 -74 195 -114
305 -109 299 -304 714 -413 878 -49 73 -121 188 -161 257 -40 69 -141 217
-225 330 -83 113 -168 228 -188 255 -20 28 -80 93 -133 145 -53 52 -145 154
-205 226 -75 90 -140 156 -212 214 -56 46 -160 139 -229 207 -146 143 -526
433 -702 535 -60 35 -183 112 -275 172 -135 88 -217 131 -437 233 -148 69
-337 150 -420 179 -82 30 -220 82 -305 114 -196 76 -388 131 -610 176 -96 19
-247 50 -335 69 -179 37 -420 70 -630 85 -164 12 -829 11 -995 -1z m1005 -44
c227 -16 438 -45 601 -80 65 -14 207 -44 314 -66 247 -50 439 -104 638 -181
86 -33 218 -81 292 -108 225 -79 676 -293 815 -387 66 -44 185 -118 265 -165
236 -138 599 -409 740 -553 52 -53 151 -143 220 -200 87 -71 150 -133 205
-201 43 -55 136 -157 206 -229 75 -77 167 -185 225 -265 54 -74 136 -187 184
-250 47 -63 121 -176 165 -250 43 -74 114 -189 158 -255 99 -148 308 -591 402
-855 34 -96 83 -227 108 -290 59 -152 119 -365 161 -575 19 -93 49 -235 66
-315 69 -323 99 -662 99 -1120 0 -458 -30 -797 -99 -1120 -17 -80 -47 -221
-66 -315 -42 -210 -102 -423 -161 -575 -25 -63 -74 -194 -108 -290 -92 -256
-303 -708 -395 -845 -41 -61 -114 -177 -162 -260 -53 -90 -128 -198 -186 -270
-54 -66 -136 -176 -182 -245 -59 -90 -118 -161 -209 -255 -70 -71 -163 -174
-206 -229 -55 -68 -118 -130 -205 -201 -69 -57 -168 -147 -220 -200 -67 -69
-135 -123 -230 -188 -74 -50 -189 -135 -255 -189 -72 -58 -180 -133 -270 -186
-82 -48 -199 -121 -260 -162 -129 -87 -587 -303 -805 -380 -74 -27 -206 -75
-292 -108 -199 -77 -391 -131 -638 -181 -107 -22 -249 -52 -314 -66 -294 -64
-650 -94 -1096 -94 -446 0 -802 30 -1096 94 -65 14 -207 44 -314 66 -247 50
-439 104 -638 181 -86 33 -218 81 -292 108 -218 77 -676 293 -805 380 -61 41
-177 114 -260 162 -90 53 -198 128 -270 186 -66 54 -176 136 -245 182 -90 59
-161 118 -255 209 -71 70 -174 163 -229 206 -68 55 -130 118 -201 205 -57 69
-147 168 -200 220 -69 67 -123 135 -188 230 -50 74 -135 189 -189 255 -58 72
-133 180 -186 270 -48 83 -121 199 -162 260 -92 137 -303 589 -395 845 -34 96
-83 227 -108 290 -59 152 -119 365 -161 575 -19 94 -49 235 -66 315 -69 323
-99 662 -99 1120 0 458 30 797 99 1120 17 80 47 222 66 315 42 210 102 423
161 575 25 63 74 194 108 290 94 264 303 707 402 855 44 66 115 181 158 255
44 74 118 187 165 250 48 63 130 176 184 250 58 80 150 188 225 265 70 72 163
174 206 229 55 68 118 130 205 201 69 57 168 147 220 200 141 144 504 415 740
553 80 47 199 121 265 165 139 94 590 308 815 387 74 27 206 75 292 108 199
77 391 131 638 181 107 22 249 52 314 66 159 34 373 64 581 79 234 18 776 19
1010 1z"/>
<path d="M5905 12485 c-205 -16 -394 -44 -575 -85 -74 -17 -205 -46 -290 -64
-184 -40 -657 -184 -856 -260 -265 -102 -771 -367 -1067 -559 -212 -138 -562
-400 -697 -523 -255 -231 -514 -504 -706 -744 -98 -124 -213 -272 -255 -330
-183 -252 -566 -963 -689 -1275 -158 -404 -347 -1152 -370 -1465 -6 -85 -20
-220 -30 -300 -17 -119 -20 -203 -20 -480 0 -277 3 -361 20 -480 10 -80 24
-215 30 -300 23 -313 212 -1061 370 -1465 123 -312 506 -1023 689 -1275 42
-58 157 -206 255 -330 192 -240 451 -513 706 -744 135 -123 485 -385 697 -523
296 -192 802 -457 1067 -559 199 -76 672 -220 856 -260 85 -18 216 -47 290
-64 306 -70 624 -99 1070 -99 446 0 764 29 1070 99 74 17 205 46 290 64 184
40 657 184 856 260 265 102 771 367 1067 559 212 138 562 400 697 523 255 231
514 504 706 744 98 124 213 272 255 330 183 252 566 963 689 1275 158 404 347
1152 370 1465 6 85 20 220 30 300 29 209 29 751 0 960 -10 80 -24 215 -30 300
-23 313 -212 1061 -370 1465 -123 312 -506 1023 -689 1275 -42 58 -157 206
-255 330 -192 240 -451 513 -706 744 -135 123 -485 385 -697 523 -296 192
-802 457 -1067 559 -199 76 -672 220 -856 260 -85 18 -216 47 -290 64 -314 72
-628 100 -1090 98 -168 0 -381 -6 -475 -13z"/>
</g>
</svg>
